<svg id="Layer_1" data-name="Layer 1" xmlns="http://www.w3.org/2000/svg" viewBox="0 0 100 100"><defs><style>.cls-1{fill:#fc4cb9;}</style></defs><path class="cls-1" d="M6.06,34.72v41.4l.54-.23a60.56,60.56,0,0,1,7.5-4.46V15.75L.5,27.07C5.56,27.07,6.06,28.07,6.06,34.72Z"/><path class="cls-1" d="M31.77,65.29A69.78,69.78,0,0,1,30.61,52.2c0-23.74,9.63-35.55,19.37-35.55S69.34,28.46,69.34,52.2a69.64,69.64,0,0,1-1.15,13.08,78.33,78.33,0,0,1,8.11,2.2A48.79,48.79,0,0,0,78.57,52.2C78.57,28,64.27,16,50,16S21.38,28,21.38,52.2a48.75,48.75,0,0,0,2.28,15.29A77.65,77.65,0,0,1,31.77,65.29Z"/><path class="cls-1" d="M93.94,76.12V34.72c0-6.65.5-7.65,5.56-7.65L85.9,15.75V71.43a60.56,60.56,0,0,1,7.5,4.46Z"/><path class="cls-1" d="M1.94,84.25C15.34,77.93,32,74.19,50,74.19s34.66,3.74,48.06,10.06C86.93,74.4,69.54,68.07,50,68.07S13.07,74.4,1.94,84.25Z"/></svg>