<svg id="Layer_1" data-name="Layer 1" xmlns="http://www.w3.org/2000/svg" viewBox="0 0 100 100"><defs><style>.cls-1{fill:#e82582;}</style></defs><path class="cls-1" d="M83.44,2.38,74.87,55.73h-2v.15c-2.09-1.16-5.59-1.47-9.1-4.73a34.14,34.14,0,0,1-4.92-6.1,22.46,22.46,0,0,1-3.25-10.93c0-.8-.36-.76.21-7.49.65-7.67.11-8.57-.1-9.22-1.42-4.34-4.92-5.56-9.95-5.55-4.14,0-3.8,2.35-11,4.61-6.63,2.08-12.54,1.4-15.08,1.36-3.84-.06-6.08-1.18-8.75-2-5.52-1.75-8.52-5.22-9.94-4.19-.82.59-.54,2.22-.32,3.56,1,6,6.34,11.31,10,12a3.34,3.34,0,0,1,1.67.73c1.23,1.08,1.24,4.95,2.88,6.91,2.2,2.62,4.14,2.88,6,4,.78.47-.35,2.74,1.62,5.23,2.26,2.86,5.74,3.6,7.54,4,6.57,1.4,12.78-1.43,12.67-2.2-.07-.45-2.29,0-6.49-.83-3.24-.68-7.59,0-11.1-6-.21-.37,3.45.73,3.45.73a30.1,30.1,0,0,0,3.93,0,9.78,9.78,0,0,0,3.61-1.78,17.1,17.1,0,0,1-6.17-1,63.56,63.56,0,0,1-7.75-3.09c-3.36-1.69-3.06-4.22-3-4.34a28.86,28.86,0,0,0,5.3,1.07A18.62,18.62,0,0,0,31,30.05c1.67-.59,3.35-3,2.83-3a48.06,48.06,0,0,1-6.86.58,21.14,21.14,0,0,1-7.85-1.22c-.89-.31-4.36-.67-7.17-2.52-2.23-1.46-5-5.75-5-5.75s9.21,3.58,12.54,4.08,4,.42,9.18-.14c7.62-.83,11.37-1.74,14.44-2.93,1.81-.7,3.77-1.62,5.45-.74s2.28,3.32,2.4,4.3c.33,2.59,0,4.34.14,8.37.08,2.17-.29,5.84,1.05,9.7,1.87,5.4,1.59,3.6,3,6.56,1.19,2.56,3.54,4.77,8,8.38,0,0,5.87,3,9.48,3.46a6.21,6.21,0,0,0,1.7,0L68.14,97.62h1.29L75.6,59.19H86.77l5.92,38.43H99.5L84.85,2.38ZM76.08,55.73l5.17-31.88,4.92,31.88Z"/></svg>